<svg xmlns="http://www.w3.org/2000/svg" xmlns:xlink="http://www.w3.org/1999/xlink" width="1920" zoomAndPan="magnify" viewBox="0 0 1440 525.000007" height="700" preserveAspectRatio="xMidYMid meet" version="1.0"><defs><g/><clipPath id="7e802287a1"><rect x="0" width="1409" y="0" height="524"/></clipPath></defs><g transform="matrix(1, 0, 0, 1, 13, 0.000000000000109615)"><g clip-path="url(#7e802287a1)"><g fill="#000000" fill-opacity="1"><g transform="translate(0.732408, 239.598464)"><g><path d="M 49.765625 -86.515625 L 49.765625 -21.1875 L 151.078125 -21.1875 L 151.078125 0 L 22.96875 0 L 22.96875 -188.84375 L 148.265625 -188.84375 L 148.265625 -167.671875 L 49.765625 -167.671875 L 49.765625 -107.953125 L 139.34375 -107.953125 L 139.34375 -86.515625 Z M 49.765625 -86.515625 "/></g></g></g><g fill="#000000" fill-opacity="1"><g transform="translate(157.163921, 239.598464)"><g><path d="M 86.265625 -2.546875 L 139.078125 -188.84375 L 166.390625 -188.84375 L 109.484375 0 L 61 0 L 4.34375 -188.84375 L 33.171875 -188.84375 L 85.75 -2.546875 Z M 86.265625 -2.546875 "/></g></g></g><g fill="#000000" fill-opacity="1"><g transform="translate(322.271912, 239.598464)"><g><path d="M 96.71875 2.546875 C 79.195312 2.546875 64.140625 -1.28125 51.546875 -8.9375 C 38.960938 -16.59375 29.351562 -27.648438 22.71875 -42.109375 C 16.082031 -56.566406 12.765625 -74.003906 12.765625 -94.421875 C 12.765625 -114.835938 16.082031 -132.273438 22.71875 -146.734375 C 29.351562 -161.203125 38.960938 -172.265625 51.546875 -179.921875 C 64.140625 -187.578125 79.195312 -191.40625 96.71875 -191.40625 C 114.25 -191.40625 129.265625 -187.578125 141.765625 -179.921875 C 154.265625 -172.265625 163.832031 -161.203125 170.46875 -146.734375 C 177.101562 -132.273438 180.421875 -114.835938 180.421875 -94.421875 C 180.421875 -74.003906 177.101562 -56.566406 170.46875 -42.109375 C 163.832031 -27.648438 154.265625 -16.59375 141.765625 -8.9375 C 129.265625 -1.28125 114.25 2.546875 96.71875 2.546875 Z M 96.71875 -19.390625 C 114.414062 -19.390625 128.195312 -25.984375 138.0625 -39.171875 C 147.925781 -52.359375 152.859375 -70.773438 152.859375 -94.421875 C 152.859375 -118.066406 147.925781 -136.484375 138.0625 -149.671875 C 128.195312 -162.859375 114.414062 -169.453125 96.71875 -169.453125 C 78.851562 -169.453125 64.941406 -162.859375 54.984375 -149.671875 C 45.035156 -136.484375 40.0625 -118.066406 40.0625 -94.421875 C 40.0625 -70.773438 45.035156 -52.359375 54.984375 -39.171875 C 64.941406 -25.984375 78.851562 -19.390625 96.71875 -19.390625 Z M 96.71875 -19.390625 "/></g></g></g><g fill="#000000" fill-opacity="1"><g transform="translate(510.091921, 239.598464)"><g><path d="M 49.765625 -188.84375 L 49.765625 -21.953125 L 135.25 -21.953125 L 135.25 0 L 22.96875 0 L 22.96875 -188.84375 Z M 49.765625 -188.84375 "/></g></g></g><g fill="#000000" fill-opacity="1"><g transform="translate(644.832178, 239.598464)"><g><path d="M 91.875 2.546875 C 69.757812 2.546875 52.445312 -3.488281 39.9375 -15.5625 C 27.4375 -27.644531 21.1875 -44.320312 21.1875 -65.59375 L 21.1875 -188.84375 L 47.71875 -188.84375 L 47.71875 -64.0625 C 47.71875 -50.101562 51.671875 -39.164062 59.578125 -31.25 C 67.492188 -23.34375 78.515625 -19.390625 92.640625 -19.390625 C 106.765625 -19.390625 117.78125 -23.34375 125.6875 -31.25 C 133.59375 -39.164062 137.546875 -50.101562 137.546875 -64.0625 L 137.546875 -188.84375 L 162.8125 -188.84375 L 162.8125 -65.59375 C 162.8125 -44.320312 156.554688 -27.644531 144.046875 -15.5625 C 131.546875 -3.488281 114.15625 2.546875 91.875 2.546875 Z M 91.875 2.546875 "/></g></g></g><g fill="#000000" fill-opacity="1"><g transform="translate(823.465302, 239.598464)"><g><path d="M 4.59375 -188.84375 L 145.71875 -188.84375 L 145.71875 -167.671875 L 88.5625 -167.671875 L 88.5625 0 L 61.765625 0 L 61.765625 -167.671875 L 4.59375 -167.671875 Z M 4.59375 -188.84375 "/></g></g></g><g fill="#000000" fill-opacity="1"><g transform="translate(968.413231, 239.598464)"><g><path d="M 49.765625 0 L 22.96875 0 L 22.96875 -188.84375 L 49.765625 -188.84375 Z M 49.765625 0 "/></g></g></g><g fill="#000000" fill-opacity="1"><g transform="translate(1035.783096, 239.598464)"><g><path d="M 96.71875 2.546875 C 79.195312 2.546875 64.140625 -1.28125 51.546875 -8.9375 C 38.960938 -16.59375 29.351562 -27.648438 22.71875 -42.109375 C 16.082031 -56.566406 12.765625 -74.003906 12.765625 -94.421875 C 12.765625 -114.835938 16.082031 -132.273438 22.71875 -146.734375 C 29.351562 -161.203125 38.960938 -172.265625 51.546875 -179.921875 C 64.140625 -187.578125 79.195312 -191.40625 96.71875 -191.40625 C 114.25 -191.40625 129.265625 -187.578125 141.765625 -179.921875 C 154.265625 -172.265625 163.832031 -161.203125 170.46875 -146.734375 C 177.101562 -132.273438 180.421875 -114.835938 180.421875 -94.421875 C 180.421875 -74.003906 177.101562 -56.566406 170.46875 -42.109375 C 163.832031 -27.648438 154.265625 -16.59375 141.765625 -8.9375 C 129.265625 -1.28125 114.25 2.546875 96.71875 2.546875 Z M 96.71875 -19.390625 C 114.414062 -19.390625 128.195312 -25.984375 138.0625 -39.171875 C 147.925781 -52.359375 152.859375 -70.773438 152.859375 -94.421875 C 152.859375 -118.066406 147.925781 -136.484375 138.0625 -149.671875 C 128.195312 -162.859375 114.414062 -169.453125 96.71875 -169.453125 C 78.851562 -169.453125 64.941406 -162.859375 54.984375 -149.671875 C 45.035156 -136.484375 40.0625 -118.066406 40.0625 -94.421875 C 40.0625 -70.773438 45.035156 -52.359375 54.984375 -39.171875 C 64.941406 -25.984375 78.851562 -19.390625 96.71875 -19.390625 Z M 96.71875 -19.390625 "/></g></g></g><g fill="#000000" fill-opacity="1"><g transform="translate(1223.603077, 239.598464)"><g><path d="M 142.140625 -2.546875 L 141.375 -188.84375 L 166.640625 -188.84375 L 166.640625 0 L 120.96875 0 L 48.234375 -186.296875 L 47.71875 -186.296875 L 48.75 0 L 22.96875 0 L 22.96875 -188.84375 L 68.90625 -188.84375 L 141.640625 -2.546875 Z M 142.140625 -2.546875 "/></g></g></g><g fill="#000000" fill-opacity="1"><g transform="translate(0.705489, 468.73199)"><g><path d="M 84.984375 2.546875 C 63.035156 2.546875 45.46875 -3.40625 32.28125 -15.3125 C 19.09375 -27.21875 11.734375 -43.890625 10.203125 -65.328125 L 36.75 -65.328125 C 37.769531 -50.867188 42.578125 -39.597656 51.171875 -31.515625 C 59.765625 -23.429688 71.207031 -19.390625 85.5 -19.390625 C 100.300781 -19.390625 111.828125 -22.320312 120.078125 -28.1875 C 128.328125 -34.0625 132.453125 -42.273438 132.453125 -52.828125 C 132.453125 -61.503906 129.984375 -68.007812 125.046875 -72.34375 C 120.117188 -76.6875 113.738281 -79.835938 105.90625 -81.796875 C 98.082031 -83.753906 89.75 -85.410156 80.90625 -86.765625 C 73.25 -87.960938 65.546875 -89.410156 57.796875 -91.109375 C 50.054688 -92.804688 42.992188 -95.3125 36.609375 -98.625 C 30.234375 -101.945312 25.128906 -106.671875 21.296875 -112.796875 C 17.472656 -118.921875 15.5625 -126.914062 15.5625 -136.78125 C 15.5625 -154.476562 21.6875 -168.003906 33.9375 -177.359375 C 46.1875 -186.722656 63.203125 -191.40625 84.984375 -191.40625 C 105.398438 -191.40625 121.734375 -185.660156 133.984375 -174.171875 C 146.234375 -162.691406 153.035156 -146.828125 154.390625 -126.578125 L 128.109375 -126.578125 C 127.429688 -140.191406 123.175781 -150.738281 115.34375 -158.21875 C 107.519531 -165.707031 97.0625 -169.453125 83.96875 -169.453125 C 71.03125 -169.453125 60.90625 -166.769531 53.59375 -161.40625 C 46.28125 -156.050781 42.625 -148.441406 42.625 -138.578125 C 42.625 -131.253906 44.875 -125.679688 49.375 -121.859375 C 53.882812 -118.035156 59.835938 -115.269531 67.234375 -113.5625 C 74.640625 -111.863281 82.515625 -110.332031 90.859375 -108.96875 C 98.847656 -107.78125 106.925781 -106.25 115.09375 -104.375 C 123.257812 -102.507812 130.703125 -99.789062 137.421875 -96.21875 C 144.140625 -92.644531 149.539062 -87.582031 153.625 -81.03125 C 157.707031 -74.476562 159.75 -65.84375 159.75 -55.125 C 159.75 -37.09375 153.15625 -22.972656 139.96875 -12.765625 C 126.789062 -2.554688 108.460938 2.546875 84.984375 2.546875 Z M 84.984375 2.546875 "/></g></g></g><g fill="#000000" fill-opacity="1"><g transform="translate(166.068682, 468.73199)"><g><path d="M 4.59375 -188.84375 L 145.71875 -188.84375 L 145.71875 -167.671875 L 88.5625 -167.671875 L 88.5625 0 L 61.765625 0 L 61.765625 -167.671875 L 4.59375 -167.671875 Z M 4.59375 -188.84375 "/></g></g></g><g fill="#000000" fill-opacity="1"><g transform="translate(311.016611, 468.73199)"><g><path d="M 175.0625 0 L 146.234375 0 L 131.421875 -47.46875 L 44.921875 -47.46875 L 30.109375 0 L 2.8125 0 L 65.59375 -188.84375 L 112.796875 -188.84375 Z M 88.046875 -186.296875 L 51.546875 -68.90625 L 124.796875 -68.90625 L 88.5625 -186.296875 Z M 88.046875 -186.296875 "/></g></g></g><g fill="#000000" fill-opacity="1"><g transform="translate(483.525137, 468.73199)"><g><path d="M 99.015625 -106.421875 L 102.59375 -106.421875 C 121.988281 -106.421875 137.085938 -101.828125 147.890625 -92.640625 C 158.691406 -83.453125 164.09375 -70.691406 164.09375 -54.359375 C 164.09375 -37.347656 158.4375 -24.035156 147.125 -14.421875 C 135.8125 -4.804688 120.03125 0 99.78125 0 L 22.96875 0 L 22.96875 -188.84375 L 98 -188.84375 C 114.332031 -188.84375 127.046875 -185.097656 136.140625 -177.609375 C 145.242188 -170.128906 149.796875 -159.582031 149.796875 -145.96875 C 149.796875 -133.71875 145.332031 -124.148438 136.40625 -117.265625 C 127.476562 -110.378906 115.015625 -106.9375 99.015625 -106.9375 Z M 122.25 -137.046875 C 122.25 -146.566406 119.351562 -154.050781 113.5625 -159.5 C 107.78125 -164.945312 99.703125 -167.671875 89.328125 -167.671875 L 49.765625 -167.671875 L 49.765625 -106.9375 L 89.328125 -106.9375 C 99.703125 -106.9375 107.78125 -109.570312 113.5625 -114.84375 C 119.351562 -120.113281 122.25 -127.515625 122.25 -137.046875 Z M 49.765625 -21.1875 L 101.0625 -21.1875 C 112.125 -21.1875 120.800781 -24.117188 127.09375 -29.984375 C 133.382812 -35.859375 136.53125 -43.984375 136.53125 -54.359375 C 136.53125 -64.566406 133.382812 -72.5625 127.09375 -78.34375 C 120.800781 -84.132812 112.125 -87.03125 101.0625 -87.03125 L 49.765625 -87.03125 Z M 49.765625 -21.1875 "/></g></g></g><g fill="#000000" fill-opacity="1"><g transform="translate(652.971352, 468.73199)"><g><path d="M 49.765625 -188.84375 L 49.765625 -21.953125 L 135.25 -21.953125 L 135.25 0 L 22.96875 0 L 22.96875 -188.84375 Z M 49.765625 -188.84375 "/></g></g></g><g fill="#000000" fill-opacity="1"><g transform="translate(787.711662, 468.73199)"><g><path d="M 49.765625 -86.515625 L 49.765625 -21.1875 L 151.078125 -21.1875 L 151.078125 0 L 22.96875 0 L 22.96875 -188.84375 L 148.265625 -188.84375 L 148.265625 -167.671875 L 49.765625 -167.671875 L 49.765625 -107.953125 L 139.34375 -107.953125 L 139.34375 -86.515625 Z M 49.765625 -86.515625 "/></g></g></g><g fill="#000000" fill-opacity="1"><g transform="translate(944.143122, 468.73199)"><g><path d="M 84.984375 2.546875 C 63.035156 2.546875 45.46875 -3.40625 32.28125 -15.3125 C 19.09375 -27.21875 11.734375 -43.890625 10.203125 -65.328125 L 36.75 -65.328125 C 37.769531 -50.867188 42.578125 -39.597656 51.171875 -31.515625 C 59.765625 -23.429688 71.207031 -19.390625 85.5 -19.390625 C 100.300781 -19.390625 111.828125 -22.320312 120.078125 -28.1875 C 128.328125 -34.0625 132.453125 -42.273438 132.453125 -52.828125 C 132.453125 -61.503906 129.984375 -68.007812 125.046875 -72.34375 C 120.117188 -76.6875 113.738281 -79.835938 105.90625 -81.796875 C 98.082031 -83.753906 89.75 -85.410156 80.90625 -86.765625 C 73.25 -87.960938 65.546875 -89.410156 57.796875 -91.109375 C 50.054688 -92.804688 42.992188 -95.3125 36.609375 -98.625 C 30.234375 -101.945312 25.128906 -106.671875 21.296875 -112.796875 C 17.472656 -118.921875 15.5625 -126.914062 15.5625 -136.78125 C 15.5625 -154.476562 21.6875 -168.003906 33.9375 -177.359375 C 46.1875 -186.722656 63.203125 -191.40625 84.984375 -191.40625 C 105.398438 -191.40625 121.734375 -185.660156 133.984375 -174.171875 C 146.234375 -162.691406 153.035156 -146.828125 154.390625 -126.578125 L 128.109375 -126.578125 C 127.429688 -140.191406 123.175781 -150.738281 115.34375 -158.21875 C 107.519531 -165.707031 97.0625 -169.453125 83.96875 -169.453125 C 71.03125 -169.453125 60.90625 -166.769531 53.59375 -161.40625 C 46.28125 -156.050781 42.625 -148.441406 42.625 -138.578125 C 42.625 -131.253906 44.875 -125.679688 49.375 -121.859375 C 53.882812 -118.035156 59.835938 -115.269531 67.234375 -113.5625 C 74.640625 -111.863281 82.515625 -110.332031 90.859375 -108.96875 C 98.847656 -107.78125 106.925781 -106.25 115.09375 -104.375 C 123.257812 -102.507812 130.703125 -99.789062 137.421875 -96.21875 C 144.140625 -92.644531 149.539062 -87.582031 153.625 -81.03125 C 157.707031 -74.476562 159.75 -65.84375 159.75 -55.125 C 159.75 -37.09375 153.15625 -22.972656 139.96875 -12.765625 C 126.789062 -2.554688 108.460938 2.546875 84.984375 2.546875 Z M 84.984375 2.546875 "/></g></g></g></g></g></svg>